<?xml version="1.0" encoding="utf-8"?>
<!-- Generator: Adobe Illustrator 26.2.1, SVG Export Plug-In . SVG Version: 6.00 Build 0)  -->
<svg version="1.1" id="Layer_1" xmlns="http://www.w3.org/2000/svg" xmlns:xlink="http://www.w3.org/1999/xlink" x="0px" y="0px"
	 viewBox="0 0 407 394" style="enable-background:new 0 0 407 394;" xml:space="preserve">
<style type="text/css">
	.st0{fill:none;}
</style>
<path class="st0" d="M109.23,258.73l30.71-36.84c-3.66-32.53-8.25-66.07-14.94-112.88C116.19,172.66,111.55,228.57,109.23,258.73z"
	/>
<path d="M125,109c6.69,46.82,11.28,80.35,14.94,112.88l62.41-74.87L185.77,35.49H59.07L14.36,372.54l94.87-113.81
	C111.55,228.57,116.19,172.66,125,109z"/>
<polygon points="104.98,372.59 110.25,312 141.6,312 146.31,372.59 235.89,372.59 206.01,171.65 37.96,372.59 "/>
<polygon points="386.45,102.95 386.45,35.49 319.88,35.49 237.99,133.41 237.99,372.59 325.65,372.59 325.65,231.01 379.78,231.01 
	379.78,166.88 325.65,166.88 325.65,102.95 "/>
<polygon points="237.99,35.49 237.99,104.26 295.31,35.49 "/>
</svg>
